<svg width="46" height="46" viewBox="0 0 46 46" fill="none" xmlns="http://www.w3.org/2000/svg">
<rect x="1.30957" y="0.87793" width="44" height="44" rx="5.5" fill="white"/>
<rect x="1.30957" y="0.87793" width="44" height="44" rx="5.5" stroke="black"/>
<path fill-rule="evenodd" clip-rule="evenodd" d="M21.4346 27.8779C22.3374 27.8779 23.2314 27.7001 24.0655 27.3546C24.8996 27.0091 25.6575 26.5027 26.2959 25.8643C26.9343 25.2259 27.4407 24.468 27.7862 23.6339C28.1317 22.7998 28.3096 21.9058 28.3096 21.0029C28.3096 20.1001 28.1317 19.2061 27.7862 18.372C27.4407 17.5379 26.9343 16.78 26.2959 16.1416C25.6575 15.5032 24.8996 14.9968 24.0655 14.6513C23.2314 14.3058 22.3374 14.1279 21.4346 14.1279C19.6112 14.1279 17.8625 14.8523 16.5732 16.1416C15.2839 17.4309 14.5596 19.1796 14.5596 21.0029C14.5596 22.8263 15.2839 24.575 16.5732 25.8643C17.8625 27.1536 19.6112 27.8779 21.4346 27.8779V27.8779ZM29.5596 21.0029C29.5596 23.1578 28.7035 25.2244 27.1798 26.7482C25.6561 28.2719 23.5895 29.1279 21.4346 29.1279C19.2797 29.1279 17.2131 28.2719 15.6893 26.7482C14.1656 25.2244 13.3096 23.1578 13.3096 21.0029C13.3096 18.848 14.1656 16.7814 15.6893 15.2577C17.2131 13.734 19.2797 12.8779 21.4346 12.8779C23.5895 12.8779 25.6561 13.734 27.1798 15.2577C28.7035 16.7814 29.5596 18.848 29.5596 21.0029V21.0029Z" fill="black"/>
<path d="M26.2393 27.5554C26.2768 27.6054 26.3168 27.6529 26.3618 27.6991L31.1743 32.5116C31.4086 32.7462 31.7266 32.878 32.0582 32.8781C32.3898 32.8783 32.7078 32.7466 32.9424 32.5123C33.1769 32.2779 33.3088 31.9599 33.3089 31.6283C33.309 31.2967 33.1774 30.9787 32.943 30.7441L28.1305 25.9316C28.0858 25.8864 28.0378 25.8446 27.9868 25.8066C27.4964 26.4752 26.9072 27.0653 26.2393 27.5566V27.5554Z" fill="black"/>
</svg>
