<svg width="46" height="46" viewBox="0 0 46 46" fill="none" xmlns="http://www.w3.org/2000/svg">
<rect x="1.30957" y="0.512695" width="44" height="44" rx="5.5" fill="white"/>
<rect x="1.30957" y="0.512695" width="44" height="44" rx="5.5" stroke="black"/>
<path d="M33.3096 22.5127C33.3096 22.5127 29.5596 15.6377 23.3096 15.6377C17.0596 15.6377 13.3096 22.5127 13.3096 22.5127C13.3096 22.5127 17.0596 29.3877 23.3096 29.3877C29.5596 29.3877 33.3096 22.5127 33.3096 22.5127ZM14.7758 22.5127C15.3802 21.5941 16.0754 20.7386 16.8508 19.9589C18.4596 18.3477 20.6596 16.8877 23.3096 16.8877C25.9596 16.8877 28.1583 18.3477 29.7696 19.9589C30.545 20.7386 31.2402 21.5941 31.8446 22.5127C31.7721 22.6214 31.6921 22.7414 31.6008 22.8727C31.1821 23.4727 30.5633 24.2727 29.7696 25.0664C28.1583 26.6777 25.9583 28.1377 23.3096 28.1377C20.6596 28.1377 18.4608 26.6777 16.8496 25.0664C16.0741 24.2868 15.379 23.4313 14.7746 22.5127H14.7758Z" fill="black"/>
<path d="M23.3096 19.3877C22.4808 19.3877 21.6859 19.7169 21.0999 20.303C20.5138 20.889 20.1846 21.6839 20.1846 22.5127C20.1846 23.3415 20.5138 24.1364 21.0999 24.7224C21.6859 25.3085 22.4808 25.6377 23.3096 25.6377C24.1384 25.6377 24.9332 25.3085 25.5193 24.7224C26.1053 24.1364 26.4346 23.3415 26.4346 22.5127C26.4346 21.6839 26.1053 20.889 25.5193 20.303C24.9332 19.7169 24.1384 19.3877 23.3096 19.3877ZM18.9346 22.5127C18.9346 21.3524 19.3955 20.2396 20.216 19.4191C21.0365 18.5986 22.1492 18.1377 23.3096 18.1377C24.4699 18.1377 25.5827 18.5986 26.4032 19.4191C27.2236 20.2396 27.6846 21.3524 27.6846 22.5127C27.6846 23.673 27.2236 24.7858 26.4032 25.6063C25.5827 26.4268 24.4699 26.8877 23.3096 26.8877C22.1492 26.8877 21.0365 26.4268 20.216 25.6063C19.3955 24.7858 18.9346 23.673 18.9346 22.5127Z" fill="black"/>
</svg>
