<svg width="46" height="46" viewBox="0 0 46 46" fill="none" xmlns="http://www.w3.org/2000/svg">
<rect x="1.30957" y="0.652344" width="44" height="44" rx="5.5" fill="white"/>
<rect x="1.30957" y="0.652344" width="44" height="44" rx="5.5" stroke="black"/>
<path d="M29.5596 12.6523H20.8096C20.1465 12.6523 19.5106 12.9157 19.0418 13.3846C18.573 13.8534 18.3096 14.4893 18.3096 15.1523C17.6465 15.1523 17.0106 15.4157 16.5418 15.8846C16.073 16.3534 15.8096 16.9893 15.8096 17.6523V30.1523C15.8096 30.8154 16.073 31.4513 16.5418 31.9201C17.0106 32.389 17.6465 32.6523 18.3096 32.6523H27.0596C27.7226 32.6523 28.3585 32.389 28.8273 31.9201C29.2962 31.4513 29.5596 30.8154 29.5596 30.1523C30.2226 30.1523 30.8585 29.889 31.3273 29.4201C31.7962 28.9513 32.0596 28.3154 32.0596 27.6523V15.1523C32.0596 14.4893 31.7962 13.8534 31.3273 13.3846C30.8585 12.9157 30.2226 12.6523 29.5596 12.6523ZM29.5596 28.9023V17.6523C29.5596 16.9893 29.2962 16.3534 28.8273 15.8846C28.3585 15.4157 27.7226 15.1523 27.0596 15.1523H19.5596C19.5596 14.8208 19.6913 14.5029 19.9257 14.2685C20.1601 14.034 20.478 13.9023 20.8096 13.9023H29.5596C29.8911 13.9023 30.209 14.034 30.4435 14.2685C30.6779 14.5029 30.8096 14.8208 30.8096 15.1523V27.6523C30.8096 27.9839 30.6779 28.3018 30.4435 28.5362C30.209 28.7706 29.8911 28.9023 29.5596 28.9023ZM17.0596 17.6523C17.0596 17.3208 17.1913 17.0029 17.4257 16.7685C17.6601 16.534 17.978 16.4023 18.3096 16.4023H27.0596C27.3911 16.4023 27.709 16.534 27.9435 16.7685C28.1779 17.0029 28.3096 17.3208 28.3096 17.6523V30.1523C28.3096 30.4839 28.1779 30.8018 27.9435 31.0362C27.709 31.2706 27.3911 31.4023 27.0596 31.4023H18.3096C17.978 31.4023 17.6601 31.2706 17.4257 31.0362C17.1913 30.8018 17.0596 30.4839 17.0596 30.1523V17.6523Z" fill="black"/>
</svg>
