<svg width="46" height="46" viewBox="0 0 46 46" fill="none" xmlns="http://www.w3.org/2000/svg">
<rect x="1.30957" y="1.31836" width="44" height="44" rx="5.5" fill="white"/>
<rect x="1.30957" y="1.31836" width="44" height="44" rx="5.5" stroke="black"/>
<path d="M13.3125 17.0684C13.3125 16.4053 13.5759 15.7694 14.0447 15.3006C14.5136 14.8318 15.1495 14.5684 15.8125 14.5684H30.8125C31.4755 14.5684 32.1114 14.8318 32.5803 15.3006C33.0491 15.7694 33.3125 16.4053 33.3125 17.0684V29.5684C33.3125 30.2314 33.0491 30.8673 32.5803 31.3361C32.1114 31.805 31.4755 32.0684 30.8125 32.0684H15.8125C15.1495 32.0684 14.5136 31.805 14.0447 31.3361C13.5759 30.8673 13.3125 30.2314 13.3125 29.5684V17.0684V17.0684ZM14.5625 28.3184V29.5684C14.5625 29.8999 14.6942 30.2178 14.9286 30.4522C15.163 30.6867 15.481 30.8184 15.8125 30.8184H30.8125C31.144 30.8184 31.462 30.6867 31.6964 30.4522C31.9308 30.2178 32.0625 29.8999 32.0625 29.5684V25.1934L27.3413 22.7596C27.224 22.7009 27.0913 22.6805 26.9619 22.7014C26.8324 22.7222 26.7128 22.7833 26.62 22.8759L21.9825 27.5134L18.6575 25.2984C18.5374 25.2184 18.3935 25.1825 18.2499 25.1966C18.1064 25.2107 17.9722 25.2741 17.87 25.3759L14.5625 28.3184ZM20.8125 20.1934C20.8125 19.6961 20.615 19.2192 20.2633 18.8675C19.9117 18.5159 19.4348 18.3184 18.9375 18.3184C18.4402 18.3184 17.9633 18.5159 17.6117 18.8675C17.26 19.2192 17.0625 19.6961 17.0625 20.1934C17.0625 20.6906 17.26 21.1676 17.6117 21.5192C17.9633 21.8708 18.4402 22.0684 18.9375 22.0684C19.4348 22.0684 19.9117 21.8708 20.2633 21.5192C20.615 21.1676 20.8125 20.6906 20.8125 20.1934Z" fill="black"/>
</svg>
