<svg width="46" height="46" viewBox="0 0 46 46" fill="none" xmlns="http://www.w3.org/2000/svg">
<rect x="1.30957" y="0.851562" width="44" height="44" rx="5.5" fill="white"/>
<rect x="1.30957" y="0.851562" width="44" height="44" rx="5.5" stroke="black"/>
<path d="M30.8096 30.3516V18.4766L25.1846 12.8516H18.3096C17.6465 12.8516 17.0106 13.115 16.5418 13.5838C16.073 14.0526 15.8096 14.6885 15.8096 15.3516V30.3516C15.8096 31.0146 16.073 31.6505 16.5418 32.1193C17.0106 32.5882 17.6465 32.8516 18.3096 32.8516H28.3096C28.9726 32.8516 29.6085 32.5882 30.0773 32.1193C30.5462 31.6505 30.8096 31.0146 30.8096 30.3516ZM25.1846 16.6016C25.1846 17.0988 25.3821 17.5758 25.7337 17.9274C26.0854 18.279 26.5623 18.4766 27.0596 18.4766H29.5596V30.3516C29.5596 30.6831 29.4279 31.001 29.1935 31.2354C28.959 31.4699 28.6411 31.6016 28.3096 31.6016H18.3096C17.978 31.6016 17.6601 31.4699 17.4257 31.2354C17.1913 31.001 17.0596 30.6831 17.0596 30.3516V15.3516C17.0596 15.02 17.1913 14.7021 17.4257 14.4677C17.6601 14.2333 17.978 14.1016 18.3096 14.1016H25.1846V16.6016Z" fill="black"/>
<path d="M19.0634 30.4601C18.8198 30.3627 18.6235 30.1745 18.5159 29.9351C18.2722 29.4501 18.3534 28.9651 18.6159 28.5576C18.8634 28.1739 19.2734 27.8476 19.7372 27.5739C20.3246 27.2407 20.9456 26.9705 21.5897 26.7676C22.0899 25.8684 22.5333 24.9386 22.9172 23.9839C22.6877 23.4624 22.5077 22.9204 22.3797 22.3651C22.2722 21.8651 22.2309 21.3701 22.3222 20.9451C22.4159 20.5026 22.6647 20.1051 23.1347 19.9164C23.3747 19.8201 23.6347 19.7664 23.8872 19.8201C24.0142 19.8472 24.1336 19.9021 24.2367 19.9811C24.3399 20.06 24.4241 20.1609 24.4834 20.2764C24.5934 20.4814 24.6334 20.7214 24.6422 20.9489C24.6509 21.1839 24.6272 21.4439 24.5834 21.7164C24.4784 22.3539 24.2459 23.1339 23.9334 23.9589C24.2783 24.6964 24.6883 25.4017 25.1584 26.0664C25.7148 26.0224 26.2744 26.0434 26.8259 26.1289C27.2809 26.2114 27.7434 26.3726 28.0259 26.7101C28.1759 26.8901 28.2672 27.1101 28.2759 27.3576C28.2847 27.5976 28.2172 27.8351 28.1034 28.0614C28.0049 28.2711 27.8521 28.4506 27.6609 28.5814C27.4719 28.7047 27.2488 28.765 27.0234 28.7539C26.6097 28.7364 26.2059 28.5089 25.8572 28.2326C25.4331 27.882 25.051 27.4835 24.7184 27.0451C23.8731 27.1411 23.0379 27.3109 22.2222 27.5526C21.8487 28.2151 21.4223 28.8463 20.9472 29.4401C20.5822 29.8776 20.1859 30.2601 19.7884 30.4239C19.5601 30.5272 19.301 30.5402 19.0634 30.4601V30.4601ZM20.7872 28.0839C20.5797 28.1789 20.3872 28.2789 20.2134 28.3814C19.8034 28.6239 19.5372 28.8601 19.4047 29.0651C19.2872 29.2464 19.2847 29.3776 19.3547 29.5164C19.3672 29.5439 19.3797 29.5614 19.3872 29.5714C19.4021 29.5674 19.4167 29.5624 19.4309 29.5564C19.6022 29.4864 19.8747 29.2626 20.2247 28.8414C20.4238 28.5977 20.6115 28.3449 20.7872 28.0839V28.0839ZM22.8372 26.4214C23.2546 26.324 23.6758 26.2435 24.0997 26.1801C23.8721 25.8318 23.6594 25.474 23.4622 25.1076C23.2661 25.5509 23.0577 25.9885 22.8372 26.4201V26.4214ZM25.8947 26.9839C26.0822 27.1876 26.2647 27.3589 26.4384 27.4964C26.7384 27.7339 26.9472 27.8126 27.0609 27.8164C27.0914 27.8204 27.1223 27.8137 27.1484 27.7976C27.2004 27.7566 27.2409 27.7027 27.2659 27.6414C27.3104 27.5652 27.3357 27.4795 27.3397 27.3914C27.339 27.362 27.3274 27.334 27.3072 27.3126C27.2422 27.2351 27.0572 27.1226 26.6597 27.0514C26.4068 27.0091 26.151 26.9869 25.8947 26.9851V26.9839ZM23.4072 22.6014C23.5124 22.262 23.5959 21.9163 23.6572 21.5664C23.6959 21.3314 23.7109 21.1376 23.7047 20.9851C23.705 20.901 23.6915 20.8174 23.6647 20.7376C23.6022 20.7454 23.5411 20.7622 23.4834 20.7876C23.3747 20.8314 23.2859 20.9201 23.2384 21.1414C23.1884 21.3814 23.2009 21.7276 23.2959 22.1689C23.3259 22.3076 23.3634 22.4526 23.4084 22.6014H23.4072Z" fill="black"/>
</svg>
