<svg width="46" height="46" viewBox="0 0 46 46" fill="none" xmlns="http://www.w3.org/2000/svg">
<rect x="1.31348" y="1.38672" width="44" height="44" rx="5.5" fill="white"/>
<rect x="1.31348" y="1.38672" width="44" height="44" rx="5.5" stroke="black"/>
<path fill-rule="evenodd" clip-rule="evenodd" d="M13.3135 19.6367C13.3135 18.9737 13.5769 18.3378 14.0457 17.869C14.5146 17.4001 15.1504 17.1367 15.8135 17.1367H25.1885C25.7948 17.1366 26.3806 17.357 26.8366 17.7566C27.2926 18.1563 27.5878 18.7081 27.6672 19.3092L31.5547 17.5817C31.745 17.4969 31.9535 17.461 32.1611 17.4773C32.3688 17.4936 32.5691 17.5615 32.7439 17.6749C32.9187 17.7883 33.0623 17.9436 33.1618 18.1266C33.2612 18.3097 33.3134 18.5147 33.3135 18.723V28.0505C33.3133 28.2586 33.2611 28.4634 33.1617 28.6463C33.0623 28.8292 32.9188 28.9844 32.7442 29.0977C32.5697 29.2111 32.3695 29.2791 32.162 29.2955C31.9545 29.3119 31.7462 29.2762 31.556 29.1917L27.6672 27.4642C27.5878 28.0654 27.2926 28.6171 26.8366 29.0168C26.3806 29.4165 25.7948 29.6368 25.1885 29.6367H15.8135C15.1504 29.6367 14.5146 29.3733 14.0457 28.9045C13.5769 28.4356 13.3135 27.7998 13.3135 27.1367V19.6367ZM27.6885 26.1055L32.0635 28.0505V18.723L27.6885 20.668V26.1055ZM15.8135 18.3867C15.482 18.3867 15.164 18.5184 14.9296 18.7528C14.6952 18.9873 14.5635 19.3052 14.5635 19.6367V27.1367C14.5635 27.4682 14.6952 27.7862 14.9296 28.0206C15.164 28.255 15.482 28.3867 15.8135 28.3867H25.1885C25.52 28.3867 25.8379 28.255 26.0724 28.0206C26.3068 27.7862 26.4385 27.4682 26.4385 27.1367V19.6367C26.4385 19.3052 26.3068 18.9873 26.0724 18.7528C25.8379 18.5184 25.52 18.3867 25.1885 18.3867H15.8135Z" fill="black"/>
</svg>
