<svg width="46" height="46" viewBox="0 0 46 46" fill="none" xmlns="http://www.w3.org/2000/svg">
<rect x="1.08203" y="0.800781" width="44" height="44" rx="5.5" fill="white"/>
<rect x="1.08203" y="0.800781" width="44" height="44" rx="5.5" stroke="black"/>
<path fill-rule="evenodd" clip-rule="evenodd" d="M21.207 27.8008C22.1099 27.8008 23.0039 27.623 23.838 27.2775C24.6721 26.932 25.43 26.4255 26.0684 25.7871C26.7068 25.1487 27.2132 24.3908 27.5587 23.5567C27.9042 22.7226 28.082 21.8286 28.082 20.9258C28.082 20.0229 27.9042 19.1289 27.5587 18.2948C27.2132 17.4607 26.7068 16.7028 26.0684 16.0644C25.43 15.426 24.6721 14.9196 23.838 14.5741C23.0039 14.2286 22.1099 14.0508 21.207 14.0508C19.3837 14.0508 17.635 14.7751 16.3457 16.0644C15.0564 17.3537 14.332 19.1024 14.332 20.9258C14.332 22.7491 15.0564 24.4978 16.3457 25.7871C17.635 27.0765 19.3837 27.8008 21.207 27.8008ZM29.332 20.9258C29.332 23.0807 28.476 25.1473 26.9523 26.671C25.4285 28.1948 23.3619 29.0508 21.207 29.0508C19.0521 29.0508 16.9855 28.1948 15.4618 26.671C13.9381 25.1473 13.082 23.0807 13.082 20.9258C13.082 18.7709 13.9381 16.7043 15.4618 15.1805C16.9855 13.6568 19.0521 12.8008 21.207 12.8008C23.3619 12.8008 25.4285 13.6568 26.9523 15.1805C28.476 16.7043 29.332 18.7709 29.332 20.9258Z" fill="black"/>
<path d="M26.0117 27.4782C26.0492 27.5282 26.0892 27.5757 26.1342 27.622L30.9467 32.4345C31.1811 32.669 31.4991 32.8009 31.8307 32.801C32.1622 32.8011 32.4803 32.6695 32.7148 32.4351C32.9494 32.2007 33.0812 31.8828 33.0813 31.5512C33.0815 31.2196 32.9499 30.9015 32.7155 30.667L27.903 25.8545C27.8583 25.8093 27.8102 25.7675 27.7592 25.7295C27.2689 26.3981 26.6796 26.9882 26.0117 27.4795V27.4782Z" fill="black"/>
</svg>
