<svg width="21" height="21" viewBox="0 0 21 21" fill="none" xmlns="http://www.w3.org/2000/svg">
<path fill-rule="evenodd" clip-rule="evenodd" d="M8.20703 15.8008C9.10987 15.8008 10.0039 15.623 10.838 15.2775C11.6721 14.932 12.43 14.4255 13.0684 13.7871C13.7068 13.1487 14.2132 12.3908 14.5587 11.5567C14.9042 10.7226 15.082 9.82862 15.082 8.92578C15.082 8.02294 14.9042 7.12895 14.5587 6.29483C14.2132 5.46072 13.7068 4.70282 13.0684 4.06442C12.43 3.42602 11.6721 2.91961 10.838 2.57411C10.0039 2.22861 9.10987 2.05078 8.20703 2.05078C6.38367 2.05078 4.63498 2.77511 3.34567 4.06442C2.05636 5.35373 1.33203 7.10242 1.33203 8.92578C1.33203 10.7491 2.05636 12.4978 3.34567 13.7871C4.63498 15.0765 6.38367 15.8008 8.20703 15.8008ZM16.332 8.92578C16.332 11.0807 15.476 13.1473 13.9523 14.671C12.4285 16.1948 10.3619 17.0508 8.20703 17.0508C6.05215 17.0508 3.98552 16.1948 2.46179 14.671C0.938056 13.1473 0.0820313 11.0807 0.0820312 8.92578C0.0820313 6.7709 0.938056 4.70427 2.46179 3.18054C3.98552 1.65681 6.05215 0.800781 8.20703 0.800781C10.3619 0.800781 12.4285 1.65681 13.9523 3.18054C15.476 4.70427 16.332 6.7709 16.332 8.92578Z" fill="black"/>
<path d="M13.0117 15.4782C13.0492 15.5282 13.0892 15.5757 13.1342 15.622L17.9467 20.4345C18.1811 20.669 18.4991 20.8009 18.8307 20.801C19.1622 20.8011 19.4803 20.6695 19.7148 20.4351C19.9494 20.2007 20.0812 19.8828 20.0813 19.5512C20.0815 19.2196 19.9499 18.9015 19.7155 18.667L14.903 13.8545C14.8583 13.8093 14.8102 13.7675 14.7592 13.7295C14.2689 14.3981 13.6796 14.9882 13.0117 15.4795V15.4782Z" fill="black"/>
</svg>
