<svg width="46" height="46" viewBox="0 0 46 46" fill="none" xmlns="http://www.w3.org/2000/svg">
<rect x="1.08203" y="0.800781" width="44" height="44" rx="5.5" fill="white"/>
<rect x="1.08203" y="0.800781" width="44" height="44" rx="5.5" stroke="black"/>
<path d="M19.3329 30.3008V32.1758C19.3329 32.3828 19.5009 32.5508 19.7079 32.5508H21.2079C21.3074 32.5508 21.4028 32.5113 21.4731 32.4409C21.5434 32.3706 21.5829 32.2752 21.5829 32.1758V30.3008H22.3329V32.1758C22.3329 32.3828 22.5009 32.5508 22.7079 32.5508H24.2079C24.3074 32.5508 24.4028 32.5113 24.4731 32.4409C24.5434 32.3706 24.5829 32.2752 24.5829 32.1758V30.3008H24.7089C27.6969 30.3008 29.8329 28.7513 29.8329 26.0708C29.8329 23.8178 28.3224 22.5863 26.5539 22.4108V22.2788C28.0089 21.9158 29.0784 20.8178 29.0784 18.9938C29.0784 16.6958 27.3534 15.3008 24.7209 15.3008H24.5829V13.4258C24.5829 13.3263 24.5434 13.2309 24.4731 13.1606C24.4028 13.0903 24.3074 13.0508 24.2079 13.0508H22.7079C22.6085 13.0508 22.5131 13.0903 22.4428 13.1606C22.3724 13.2309 22.3329 13.3263 22.3329 13.4258V15.3008H21.4734V13.4258C21.4734 13.3263 21.4339 13.2309 21.3636 13.1606C21.2933 13.0903 21.1979 13.0508 21.0984 13.0508H19.7079C19.6085 13.0508 19.5131 13.0903 19.4428 13.1606C19.3724 13.2309 19.3329 13.3263 19.3329 13.4258V15.3008L16.3359 15.3173C16.2365 15.3173 16.1411 15.3568 16.0708 15.4271C16.0004 15.4974 15.9609 15.5928 15.9609 15.6923V17.1758C15.9609 17.3813 16.1259 17.5508 16.3329 17.5508L17.4654 17.5433C17.7625 17.5453 18.0467 17.6647 18.2561 17.8754C18.4654 18.0862 18.5829 18.3712 18.5829 18.6683V26.9258C18.5829 27.2241 18.4644 27.5103 18.2534 27.7213C18.0425 27.9323 17.7563 28.0508 17.4579 28.0508L16.3359 28.0673C16.2365 28.0673 16.1411 28.1068 16.0708 28.1771C16.0004 28.2474 15.9609 28.3428 15.9609 28.4423V29.9423C15.9609 30.1493 16.1289 30.3173 16.3359 30.3173L19.3329 30.3008ZM21.4734 17.5313H24.0519C25.4109 17.5313 26.2089 18.2783 26.2089 19.4993C26.2089 20.8058 25.3464 21.5423 23.3934 21.5423H21.4734V17.5313ZM21.4734 23.6078H24.2334C25.9389 23.6078 26.8674 24.4778 26.8674 25.8938C26.8674 27.3233 25.9284 28.0688 23.6304 28.0688H21.4734V23.6093V23.6078Z" fill="black"/>
</svg>
