<svg width="46" height="46" viewBox="0 0 46 46" fill="none" xmlns="http://www.w3.org/2000/svg">
<rect x="1.08203" y="1.12891" width="44" height="44" rx="5.5" fill="white"/>
<rect x="1.08203" y="1.12891" width="44" height="44" rx="5.5" stroke="black"/>
<path d="M27.377 13.5365C27.6534 13.4674 27.9418 13.4621 28.2205 13.5211C28.4991 13.5801 28.7607 13.7019 28.9853 13.8771C29.2098 14.0522 29.3916 14.2763 29.5166 14.5322C29.6417 14.7881 29.7068 15.0692 29.707 15.354V16.879H30.332C30.8293 16.879 31.3062 17.0766 31.6579 17.4282C32.0095 17.7798 32.207 18.2567 32.207 18.754V30.004C32.207 30.5013 32.0095 30.9782 31.6579 31.3298C31.3062 31.6815 30.8293 31.879 30.332 31.879H14.082C13.5848 31.879 13.1078 31.6815 12.7562 31.3298C12.4046 30.9782 12.207 30.5013 12.207 30.004V18.754C12.2069 18.2713 12.3928 17.8072 12.7263 17.4582C13.0597 17.1091 13.5148 16.9021 13.997 16.8803L27.377 13.5365ZM19.1595 16.879H28.457V15.354C28.4568 15.2592 28.435 15.1656 28.3933 15.0805C28.3516 14.9953 28.291 14.9208 28.2162 14.8625C28.1414 14.8042 28.0544 14.7637 27.9616 14.744C27.8688 14.7244 27.7728 14.7261 27.6808 14.749L19.1595 16.879ZM14.082 18.129C13.9163 18.129 13.7573 18.1949 13.6401 18.3121C13.5229 18.4293 13.457 18.5883 13.457 18.754V30.004C13.457 30.1698 13.5229 30.3287 13.6401 30.446C13.7573 30.5632 13.9163 30.629 14.082 30.629H30.332C30.4978 30.629 30.6568 30.5632 30.774 30.446C30.8912 30.3287 30.957 30.1698 30.957 30.004V18.754C30.957 18.5883 30.8912 18.4293 30.774 18.3121C30.6568 18.1949 30.4978 18.129 30.332 18.129H14.082Z" fill="black"/>
</svg>
