<svg width="46" height="46" viewBox="0 0 46 46" fill="none" xmlns="http://www.w3.org/2000/svg">
<rect x="1.08203" y="0.800781" width="44" height="44" rx="5.5" fill="white"/>
<rect x="1.08203" y="0.800781" width="44" height="44" rx="5.5" stroke="black"/>
<path fill-rule="evenodd" clip-rule="evenodd" d="M14.3312 27.1756C14.3312 27.3414 14.397 27.5003 14.5143 27.6175C14.6315 27.7347 14.7904 27.8006 14.9562 27.8006H29.6974L25.7637 31.7331C25.6463 31.8505 25.5804 32.0096 25.5804 32.1756C25.5804 32.3416 25.6463 32.5007 25.7637 32.6181C25.8811 32.7355 26.0402 32.8014 26.2062 32.8014C26.3722 32.8014 26.5313 32.7355 26.6487 32.6181L31.6487 27.6181C31.7069 27.56 31.7531 27.4911 31.7846 27.4151C31.8161 27.3392 31.8323 27.2578 31.8323 27.1756C31.8323 27.0934 31.8161 27.012 31.7846 26.9361C31.7531 26.8601 31.7069 26.7912 31.6487 26.7331L26.6487 21.7331C26.5313 21.6157 26.3722 21.5498 26.2062 21.5498C26.0402 21.5498 25.8811 21.6157 25.7637 21.7331C25.6463 21.8505 25.5804 22.0096 25.5804 22.1756C25.5804 22.3416 25.6463 22.5007 25.7637 22.6181L29.6974 26.5506H14.9562C14.7904 26.5506 14.6315 26.6164 14.5143 26.7337C14.397 26.8509 14.3312 27.0098 14.3312 27.1756ZM31.8312 18.4256C31.8312 18.5914 31.7653 18.7503 31.6481 18.8675C31.5309 18.9847 31.372 19.0506 31.2062 19.0506H16.4649L20.3987 22.9831C20.4568 23.0412 20.5029 23.1102 20.5343 23.1861C20.5658 23.262 20.582 23.3434 20.582 23.4256C20.582 23.5078 20.5658 23.5891 20.5343 23.6651C20.5029 23.741 20.4568 23.81 20.3987 23.8681C20.3406 23.9262 20.2716 23.9723 20.1957 24.0037C20.1198 24.0352 20.0384 24.0514 19.9562 24.0514C19.874 24.0514 19.7926 24.0352 19.7167 24.0037C19.6408 23.9723 19.5718 23.9262 19.5137 23.8681L14.5137 18.8681C14.4555 18.81 14.4093 18.7411 14.3778 18.6651C14.3463 18.5892 14.3301 18.5078 14.3301 18.4256C14.3301 18.3434 14.3463 18.262 14.3778 18.1861C14.4093 18.1101 14.4555 18.0412 14.5137 17.9831L19.5137 12.9831C19.6311 12.8657 19.7902 12.7998 19.9562 12.7998C20.1222 12.7998 20.2813 12.8657 20.3987 12.9831C20.5161 13.1005 20.582 13.2596 20.582 13.4256C20.582 13.5916 20.5161 13.7507 20.3987 13.8681L16.4649 17.8006H31.2062C31.372 17.8006 31.5309 17.8664 31.6481 17.9837C31.7653 18.1009 31.8312 18.2598 31.8312 18.4256Z" fill="black"/>
</svg>
