<svg width="46" height="46" viewBox="0 0 46 46" fill="none" xmlns="http://www.w3.org/2000/svg">
<rect x="1.08203" y="0.800781" width="44" height="44" rx="5.5" fill="white"/>
<rect x="1.08203" y="0.800781" width="44" height="44" rx="5.5" stroke="black"/>
<path d="M14.332 26.5508C14.332 26.2193 14.4637 25.9013 14.6981 25.6669C14.9326 25.4325 15.2505 25.3008 15.582 25.3008H18.082C18.4136 25.3008 18.7315 25.4325 18.9659 25.6669C19.2003 25.9013 19.332 26.2193 19.332 26.5508V30.3008C19.332 30.6323 19.2003 30.9502 18.9659 31.1847C18.7315 31.4191 18.4136 31.5508 18.082 31.5508H15.582C15.2505 31.5508 14.9326 31.4191 14.6981 31.1847C14.4637 30.9502 14.332 30.6323 14.332 30.3008V26.5508ZM20.582 21.5508C20.582 21.2193 20.7137 20.9013 20.9481 20.6669C21.1826 20.4325 21.5005 20.3008 21.832 20.3008H24.332C24.6636 20.3008 24.9815 20.4325 25.2159 20.6669C25.4503 20.9013 25.582 21.2193 25.582 21.5508V30.3008C25.582 30.6323 25.4503 30.9502 25.2159 31.1847C24.9815 31.4191 24.6636 31.5508 24.332 31.5508H21.832C21.5005 31.5508 21.1826 31.4191 20.9481 31.1847C20.7137 30.9502 20.582 30.6323 20.582 30.3008V21.5508ZM26.832 15.3008C26.832 14.9693 26.9637 14.6513 27.1981 14.4169C27.4326 14.1825 27.7505 14.0508 28.082 14.0508H30.582C30.9136 14.0508 31.2315 14.1825 31.4659 14.4169C31.7003 14.6513 31.832 14.9693 31.832 15.3008V30.3008C31.832 30.6323 31.7003 30.9502 31.4659 31.1847C31.2315 31.4191 30.9136 31.5508 30.582 31.5508H28.082C27.7505 31.5508 27.4326 31.4191 27.1981 31.1847C26.9637 30.9502 26.832 30.6323 26.832 30.3008V15.3008Z" fill="black"/>
</svg>
