<svg width="53" height="53" viewBox="0 0 53 53" fill="none" xmlns="http://www.w3.org/2000/svg">
<path d="M26.3838 45.438C14.9371 45.611 5.89448 35.2962 7.44754 23.9088C8.59612 15.4869 15.3066 8.8874 23.6985 7.6934C24.4972 7.57976 25.3038 7.55472 26.1087 7.5178C26.8997 7.48834 27.7332 7.57026 28.5181 7.67014C43.4425 9.56925 50.5551 27.5296 40.296 39.1035C37.7753 41.9473 34.187 44.1029 30.4606 44.9383C29.1149 45.24 27.757 45.3553 26.3838 45.438ZM25.3629 8.78689C17.1868 9.23206 10.1859 15.3288 8.78616 23.4054C7.02097 33.5902 14.3581 43.2952 24.7896 44.1437C25.5452 44.2052 26.2994 44.177 27.0557 44.1628C37.8893 43.5662 45.878 33.3634 43.4785 22.6705C41.5852 14.2338 33.9755 8.53325 25.3681 8.78649L25.3629 8.78689Z" fill="black"/>
<path d="M26.637 41.8762C21.1079 42.0273 16.0119 39.3004 13.0981 34.5384C7.63774 25.6148 12.6455 13.3388 23.1909 11.3699C24.0623 11.2073 24.9339 11.1398 25.8179 11.0969L25.8416 11.0947C26.2946 11.0616 26.759 11.0962 27.2118 11.1193C36.6775 11.6012 43.316 20.8681 41.1616 30.0672C39.7118 36.2572 34.5326 40.9037 28.2319 41.7491C27.7013 41.8204 27.1711 41.8465 26.637 41.8762ZM25.5911 12.3411C24.3673 12.4113 23.1267 12.5893 21.9501 12.94C15.8001 14.773 11.7362 20.9651 12.116 27.3226C12.5348 34.3333 17.9501 39.9788 24.9355 40.585C25.5542 40.6387 26.1692 40.6319 26.7889 40.6173C33.0438 40.4309 38.5181 35.8493 39.9426 29.7763C42.0982 20.5858 35.0227 11.9941 25.5963 12.3407L25.5911 12.3411Z" fill="black"/>
<path d="M21.7172 31.1362C21.712 30.9175 21.7849 30.7404 21.936 30.605C22.0922 30.4644 22.2823 30.394 22.5063 30.394C22.7615 30.394 22.9854 30.5399 23.1781 30.8315C23.4438 31.2274 23.6807 31.4956 23.8891 31.6362C24.3318 31.9279 24.975 32.0737 25.8188 32.0737C26.6261 32.0737 27.3761 31.8993 28.0688 31.5503C28.9542 31.1024 29.3969 30.48 29.3969 29.6831C29.3969 29.0269 29.0245 28.5086 28.2797 28.1284C27.6495 27.8003 26.8708 27.6232 25.9438 27.5972C25.1208 27.5659 24.4203 27.3862 23.8422 27.0581C23.1026 26.6362 22.7328 26.0321 22.7328 25.2456C22.7328 24.3185 23.2589 23.4722 24.311 22.7065C25.3162 21.9826 26.3552 21.6206 27.4281 21.6206C27.9333 21.6206 28.5037 21.7065 29.1391 21.8784C29.9828 22.1024 30.4047 22.3888 30.4047 22.7378C30.4047 23.1961 30.1703 23.4253 29.7016 23.4253C29.4932 23.4253 29.1287 23.3706 28.6078 23.2612C28.087 23.1466 27.6833 23.092 27.3969 23.0972C26.5844 23.1076 25.8943 23.3081 25.3266 23.6987C24.7432 24.0998 24.4516 24.5868 24.4516 25.1597C24.4516 25.592 24.837 25.8966 25.6078 26.0737C25.8943 26.1414 26.449 26.2039 27.2719 26.2612C28.4646 26.3498 29.3969 26.7248 30.0688 27.3862C30.6833 27.9904 30.9906 28.7274 30.9906 29.5972C30.9906 30.8368 30.4177 31.8263 29.2719 32.5659C28.2771 33.2065 27.1235 33.5269 25.811 33.5269C24.8578 33.5269 23.9854 33.3446 23.1938 32.98C22.225 32.5321 21.7328 31.9175 21.7172 31.1362Z" fill="black"/>
</svg>
