<svg width="53" height="53" viewBox="0 0 53 53" fill="none" xmlns="http://www.w3.org/2000/svg">
<path d="M26.3838 45.438C14.9371 45.611 5.89448 35.2962 7.44754 23.9088C8.59612 15.4869 15.3066 8.8874 23.6985 7.6934C24.4972 7.57976 25.3038 7.55472 26.1087 7.5178C26.8997 7.48834 27.7332 7.57026 28.5181 7.67014C43.4425 9.56925 50.5551 27.5296 40.296 39.1035C37.7753 41.9473 34.187 44.1029 30.4606 44.9383C29.1149 45.24 27.757 45.3553 26.3838 45.438ZM25.3629 8.78689C17.1868 9.23206 10.1859 15.3288 8.78616 23.4054C7.02097 33.5902 14.3581 43.2952 24.7896 44.1437C25.5452 44.2052 26.2994 44.177 27.0557 44.1628C37.8893 43.5662 45.878 33.3634 43.4785 22.6705C41.5852 14.2338 33.9755 8.53325 25.3681 8.78649L25.3629 8.78689Z" fill="black"/>
<path d="M26.637 41.8762C21.1079 42.0273 16.0119 39.3004 13.0981 34.5384C7.63774 25.6148 12.6455 13.3388 23.1909 11.3699C24.0623 11.2073 24.9339 11.1398 25.8179 11.0969L25.8416 11.0947C26.2946 11.0616 26.759 11.0962 27.2118 11.1193C36.6775 11.6012 43.316 20.8681 41.1616 30.0672C39.7118 36.2572 34.5326 40.9037 28.2319 41.7491C27.7013 41.8204 27.1711 41.8465 26.637 41.8762ZM25.5911 12.3411C24.3673 12.4113 23.1267 12.5893 21.9501 12.94C15.8001 14.773 11.7362 20.9651 12.116 27.3226C12.5348 34.3333 17.9501 39.9788 24.9355 40.585C25.5542 40.6387 26.1692 40.6319 26.7889 40.6173C33.0438 40.4309 38.5181 35.8493 39.9426 29.7763C42.0982 20.5858 35.0227 11.9941 25.5963 12.3407L25.5911 12.3411Z" fill="black"/>
<path d="M26.2524 21.3615C27.2017 21.3615 28.0231 21.5429 28.7164 21.9055C29.4097 22.2575 29.9964 22.7802 30.4764 23.4735L29.3244 24.5775C28.9191 23.9589 28.4604 23.5162 27.9484 23.2495C27.4471 22.9722 26.8497 22.8335 26.1564 22.8335C25.6444 22.8335 25.2231 22.9029 24.8924 23.0415C24.5617 23.1802 24.3164 23.3669 24.1564 23.6015C24.0071 23.8255 23.9324 24.0815 23.9324 24.3695C23.9324 24.7002 24.0444 24.9882 24.2684 25.2335C24.5031 25.4789 24.9351 25.6709 25.5644 25.8095L27.7084 26.2895C28.7324 26.5135 29.4577 26.8549 29.8844 27.3135C30.3111 27.7722 30.5244 28.3535 30.5244 29.0575C30.5244 29.7082 30.3484 30.2735 29.9964 30.7535C29.6444 31.2335 29.1537 31.6015 28.5244 31.8575C27.9057 32.1135 27.1751 32.2415 26.3324 32.2415C25.5857 32.2415 24.9137 32.1455 24.3164 31.9535C23.7191 31.7615 23.1964 31.5002 22.7484 31.1695C22.3004 30.8389 21.9324 30.4602 21.6444 30.0335L22.8284 28.8495C23.0524 29.2229 23.3351 29.5589 23.6764 29.8575C24.0177 30.1455 24.4124 30.3695 24.8604 30.5295C25.3191 30.6895 25.8257 30.7695 26.3804 30.7695C26.8711 30.7695 27.2924 30.7109 27.6444 30.5935C28.0071 30.4762 28.2791 30.3055 28.4604 30.0815C28.6524 29.8469 28.7484 29.5695 28.7484 29.2495C28.7484 28.9402 28.6417 28.6682 28.4284 28.4335C28.2257 28.1989 27.8417 28.0175 27.2764 27.8895L24.9564 27.3615C24.3164 27.2229 23.7884 27.0255 23.3724 26.7695C22.9564 26.5135 22.6471 26.2042 22.4444 25.8415C22.2417 25.4682 22.1404 25.0522 22.1404 24.5935C22.1404 23.9962 22.3004 23.4575 22.6204 22.9775C22.9511 22.4869 23.4257 22.0975 24.0444 21.8095C24.6631 21.5109 25.3991 21.3615 26.2524 21.3615Z" fill="black"/>
</svg>
