<svg xmlns="http://www.w3.org/2000/svg" width="124" height="126" viewBox="0 0 124 126" fill="none">
  <path d="M60.2477 17.6187C61.187 13.4604 67.1118 13.4604 68.0511 17.6187L71.635 33.4847C72.2438 36.1797 75.3364 37.4607 77.6724 35.9855L91.4256 27.3007C95.0301 25.0246 99.2196 29.2141 96.9434 32.8185L88.2587 46.5717C86.7835 48.9078 88.0645 52.0004 90.7594 52.6091L106.625 56.193C110.784 57.1323 110.784 63.0571 106.625 63.9964L90.7594 67.5803C88.0645 68.1891 86.7835 71.2817 88.2587 73.6177L96.9434 87.3709C99.2196 90.9754 95.0301 95.1649 91.4256 92.8887L77.6724 84.204C75.3364 82.7288 72.2438 84.0098 71.635 86.7047L68.0511 102.571C67.1118 106.729 61.187 106.729 60.2477 102.571L56.6638 86.7047C56.0551 84.0098 52.9625 82.7288 50.6264 84.204L36.8732 92.8888C33.2687 95.1649 29.0793 90.9754 31.3554 87.3709L40.0402 73.6177C41.5153 71.2817 40.2343 68.1891 37.5394 67.5803L21.6733 63.9964C17.5151 63.0571 17.5151 57.1323 21.6734 56.193L37.5394 52.6091C40.2344 52.0004 41.5153 48.9078 40.0402 46.5717L31.3554 32.8185C29.0792 29.2141 33.2687 25.0246 36.8732 27.3007L50.6264 35.9855C52.9625 37.4607 56.0551 36.1797 56.6638 33.4847L60.2477 17.6187Z" fill="#0032FC" fill-opacity="0.17"/>
  <path d="M56.0016 27.2994C56.81 22.9381 63.0591 22.9381 63.8676 27.2994L65.6443 36.8839C66.2226 40.0036 70.029 41.2404 72.3306 39.0564L79.4016 32.3467C82.6192 29.2936 87.6748 32.9667 85.7654 36.9702L81.5691 45.7686C80.2033 48.6324 82.5558 51.8703 85.7015 51.4563L95.366 50.1843C99.7635 49.6055 101.695 55.5487 97.7967 57.6653L89.2303 62.3168C86.442 63.8309 86.442 67.8332 89.2303 69.3472L97.7967 73.9988C101.695 76.1154 99.7636 82.0586 95.366 81.4798L85.7015 80.2078C82.5558 79.7937 80.2033 83.0317 81.5691 85.8955L85.7654 94.6939C87.6748 98.6974 82.6192 102.37 79.4017 99.3174L72.3306 92.6077C70.029 90.4237 66.2226 91.6605 65.6443 94.7802L63.8676 104.365C63.0591 108.726 56.81 108.726 56.0016 104.365L54.2248 94.7802C53.6465 91.6605 49.8401 90.4237 47.5385 92.6077L40.4675 99.3174C37.25 102.37 32.1944 98.6974 34.1038 94.6939L38.3 85.8955C39.6659 83.0317 37.3134 79.7937 34.1676 80.2078L24.5032 81.4798C20.1056 82.0586 18.1745 76.1154 22.0725 73.9988L30.6388 69.3472C33.4271 67.8332 33.4271 63.8309 30.6388 62.3168L22.0725 57.6653C18.1745 55.5487 20.1056 49.6055 24.5032 50.1843L34.1676 51.4563C37.3134 51.8703 39.6659 48.6324 38.3 45.7686L34.1038 36.9702C32.1944 32.9667 37.25 29.2936 40.4675 32.3467L47.5385 39.0564C49.8401 41.2404 53.6465 40.0036 54.2248 36.8839L56.0016 27.2994Z" fill="#0032FC"/>
</svg>