<svg xmlns="http://www.w3.org/2000/svg" width="75" height="76" viewBox="0 0 75 76" fill="none">
  <path d="M34.7599 12.0539C35.9574 8.36866 41.171 8.36866 42.3684 12.0539L45.6819 22.2518C46.2174 23.8999 47.7532 25.0158 49.4861 25.0158H60.2089C64.0837 25.0158 65.6948 29.9742 62.56 32.2518L53.8851 38.5545C52.4832 39.5731 51.8965 41.3785 52.432 43.0266L55.7455 53.2245C56.943 56.9098 52.725 59.9743 49.5902 57.6967L40.9153 51.394C39.5134 50.3754 37.615 50.3754 36.213 51.394L27.5382 57.6967C24.4033 59.9743 20.1854 56.9098 21.3828 53.2245L24.6963 43.0266C25.2318 41.3785 24.6452 39.5731 23.2432 38.5545L14.5683 32.2518C11.4335 29.9742 13.0446 25.0158 16.9195 25.0158H27.6422C29.3751 25.0158 30.9109 23.8999 31.4464 22.2518L34.7599 12.0539Z" fill="#F24E1E" fill-opacity="0.3"/>
  <path d="M32.2952 13.9124C33.5838 10.43 38.5094 10.43 39.798 13.9124L45.0513 28.1093C45.4564 29.2042 46.3197 30.0674 47.4146 30.4725L61.6114 35.7258C65.0939 37.0145 65.0939 41.94 61.6114 43.2287L47.4146 48.482C46.3197 48.8871 45.4564 49.7504 45.0513 50.8452L39.798 65.0421C38.5094 68.5245 33.5838 68.5245 32.2952 65.0421L27.0419 50.8452C26.6367 49.7504 25.7735 48.8871 24.6786 48.482L10.4818 43.2287C6.99929 41.94 6.9993 37.0145 10.4818 35.7258L24.6786 30.4725C25.7735 30.0674 26.6367 29.2042 27.0419 28.1093L32.2952 13.9124Z" fill="#F24E1E"/>
</svg>