<svg xmlns="http://www.w3.org/2000/svg" width="63" height="59" viewBox="0 0 63 59" fill="none">
  <path d="M31.5461 5.89804C32.1448 4.05542 34.7517 4.05543 35.3504 5.89805L39.5871 18.9373C39.8548 19.7614 40.6227 20.3193 41.4892 20.3193L55.1995 20.3193C57.137 20.3193 57.9425 22.7985 56.3751 23.9373L45.2832 31.9961C44.5822 32.5053 44.2889 33.4081 44.5567 34.2321L48.7934 47.2714C49.3921 49.114 47.2831 50.6463 45.7157 49.5075L34.6238 41.4488C33.9228 40.9395 32.9736 40.9395 32.2727 41.4488L21.1808 49.5075C19.6134 50.6463 17.5044 49.114 18.1031 47.2714L22.3398 34.2321C22.6076 33.4081 22.3143 32.5053 21.6133 31.9961L10.5214 23.9373C8.95397 22.7985 9.75953 20.3193 11.697 20.3193L25.4073 20.3193C26.2737 20.3193 27.0417 19.7614 27.3094 18.9373L31.5461 5.89804Z" fill="#0FA958" fill-opacity="0.56"/>
  <path d="M27.8219 6.78292C28.3741 4.84807 31.1161 4.84807 31.6683 6.78292L34.8177 17.8185C35.1139 18.8564 36.1803 19.472 37.2272 19.2096L48.359 16.4193C50.3107 15.93 51.6817 18.3047 50.2822 19.7504L42.2998 27.9956C41.5491 28.7711 41.5491 30.0024 42.2998 30.7778L50.2822 39.0231C51.6817 40.4687 50.3107 42.8434 48.359 42.3542L37.2272 39.5639C36.1803 39.3014 35.1139 39.9171 34.8177 40.955L31.6683 51.9905C31.1162 53.9254 28.3741 53.9254 27.8219 51.9905L24.6725 40.955C24.3763 39.9171 23.31 39.3014 22.263 39.5639L11.1313 42.3542C9.17954 42.8434 7.80851 40.4687 9.20805 39.0231L17.1904 30.7778C17.9412 30.0024 17.9412 28.7711 17.1904 27.9956L9.20805 19.7504C7.80851 18.3047 9.17954 15.93 11.1313 16.4193L22.263 19.2096C23.31 19.472 24.3763 18.8564 24.6725 17.8185L27.8219 6.78292Z" fill="#0FA958"/>
</svg>