<svg xmlns="http://www.w3.org/2000/svg" width="246" height="233" viewBox="0 0 246 233" fill="none">
  <path d="M115.794 35.5523C117.27 28.0123 128.057 28.0123 129.533 35.5523L134.752 62.2088C135.797 67.5429 142.257 69.7035 146.3 66.0709L167.013 47.4622C172.77 42.2894 181.424 48.9059 177.942 55.8184L166.421 78.6918C163.902 83.6923 167.982 89.4796 173.538 88.7872L199.984 85.4916C207.748 84.5241 211.009 95.0858 204.05 98.6633L181.563 110.224C176.497 112.829 176.497 120.071 181.563 122.675L204.05 134.236C211.008 137.814 207.748 148.375 199.984 147.408L173.538 144.112C167.982 143.42 163.902 149.207 166.421 154.208L177.942 177.081C181.424 183.993 172.77 190.61 167.013 185.437L146.3 166.828C142.257 163.196 135.797 165.356 134.752 170.691L129.533 197.347C128.057 204.887 117.27 204.887 115.794 197.347L110.575 170.691C109.531 165.356 103.07 163.196 99.0272 166.828L78.3145 185.437C72.557 190.61 63.9027 183.993 67.3847 177.081L78.9066 154.208C81.4254 149.207 77.3454 143.42 71.7893 144.112L45.3434 147.408C37.5792 148.375 34.3187 137.814 41.2772 134.236L63.764 122.675C68.8298 120.071 68.8298 112.829 63.764 110.224L41.2772 98.6634C34.3187 95.0858 37.5792 84.5241 45.3434 85.4916L71.7893 88.7872C77.3454 89.4796 81.4255 83.6924 78.9066 78.6918L67.3847 55.8184C63.9027 48.906 72.557 42.2894 78.3145 47.4622L99.0272 66.0709C103.07 69.7035 109.531 67.5429 110.575 62.2088L115.794 35.5523Z" fill="#635BFF" fill-opacity="0.4"/>
  <path d="M116.145 53.526C118.465 47.5901 126.864 47.5901 129.184 53.526L144.203 91.9542C144.946 93.8554 146.482 95.3375 148.408 96.0125L187.887 109.844C194.134 112.033 194.134 120.868 187.887 123.056L148.408 136.888C146.482 137.563 144.946 139.045 144.203 140.946L129.184 179.374C126.864 185.31 118.465 185.31 116.145 179.374L101.126 140.946C100.383 139.045 98.8473 137.563 96.9209 136.888L57.4421 123.056C51.1948 120.868 51.1948 112.033 57.4421 109.844L96.9209 96.0125C98.8473 95.3375 100.383 93.8554 101.126 91.9542L116.145 53.526Z" fill="#635BFF"/>
</svg>