<svg xmlns="http://www.w3.org/2000/svg" width="109" height="109" viewBox="0 0 109 109" fill="none">
  <path d="M52.4756 12.6682C53.673 8.98292 58.8867 8.98292 60.0841 12.6682L67.0799 34.199C67.6154 35.8471 69.1512 36.963 70.8841 36.963H93.523C97.3979 36.963 99.009 41.9214 95.8741 44.199L77.5589 57.5059C76.1569 58.5244 75.5703 60.3299 76.1058 61.978L83.1016 83.5089C84.299 87.1941 80.0811 90.2586 76.9462 87.981L58.631 74.6742C57.229 73.6556 55.3306 73.6556 53.9287 74.6742L35.6134 87.981C32.4786 90.2586 28.2607 87.1941 29.4581 83.5089L36.4539 61.978C36.9894 60.3299 36.4027 58.5244 35.0008 57.5059L16.6855 44.199C13.5507 41.9214 15.1618 36.963 19.0367 36.963H41.6756C43.4085 36.963 44.9443 35.8471 45.4798 34.199L52.4756 12.6682Z" fill="#87D4AB" fill-opacity="0.5"/>
  <path d="M48.3391 21.4077C49.2784 17.2495 55.2032 17.2495 56.1425 21.4077L58.6089 32.3266C59.2176 35.0216 62.3102 36.3026 64.6463 34.8274L74.1112 28.8506C77.7156 26.5745 81.9051 30.764 79.629 34.3684L73.6522 43.8333C72.177 46.1694 73.458 49.262 76.153 49.8707L87.0719 52.3371C91.2301 53.2764 91.2301 59.2012 87.0719 60.1405L76.153 62.6069C73.458 63.2157 72.177 66.3083 73.6522 68.6444L79.629 78.1092C81.9051 81.7137 77.7156 85.9032 74.1112 83.627L64.6463 77.6502C62.3102 76.1751 59.2176 77.4561 58.6089 80.151L56.1425 91.0699C55.2032 95.2281 49.2784 95.2281 48.3391 91.0699L45.8727 80.151C45.2639 77.4561 42.1713 76.1751 39.8352 77.6502L30.3704 83.627C26.7659 85.9032 22.5764 81.7137 24.8526 78.1092L30.8294 68.6444C32.3045 66.3083 31.0235 63.2157 28.3286 62.6069L17.4097 60.1405C13.2515 59.2012 13.2515 53.2764 17.4097 52.3371L28.3286 49.8707C31.0235 49.262 32.3045 46.1694 30.8294 43.8333L24.8526 34.3684C22.5764 30.764 26.7659 26.5745 30.3704 28.8506L39.8352 34.8274C42.1713 36.3026 45.2639 35.0216 45.8727 32.3266L48.3391 21.4077Z" fill="#87D4AB"/>
</svg>