<svg xmlns="http://www.w3.org/2000/svg" width="90" height="90" viewBox="0 0 90 90" fill="none">
  <path d="M41.2637 12.6682C42.4611 8.98292 47.6747 8.98292 48.8722 12.6682L54.0984 28.7528C54.6339 30.4009 56.1697 31.5168 57.9026 31.5168L74.815 31.5168C78.6899 31.5168 80.301 36.4752 77.1662 38.7528L63.4837 48.6937C62.0818 49.7123 61.4951 51.5178 62.0306 53.1658L67.2569 69.2505C68.4543 72.9358 64.2364 76.0002 61.1015 73.7226L47.4191 63.7818C46.0171 62.7632 44.1187 62.7632 42.7168 63.7818L29.0343 73.7226C25.8995 76.0002 21.6816 72.9358 22.879 69.2505L28.1052 53.1658C28.6407 51.5177 28.0541 49.7123 26.6521 48.6937L12.9697 38.7528C9.83483 36.4752 11.4459 31.5168 15.3208 31.5168L32.2332 31.5168C33.9662 31.5168 35.502 30.4009 36.0375 28.7528L41.2637 12.6682Z" fill="#F7FC0D" fill-opacity="0.19"/>
  <path d="M43.744 15.0002C44.4217 13.3428 46.7688 13.3428 47.4464 15.0002L57.9347 40.6513C58.0032 40.8187 58.094 40.9761 58.2048 41.1191L75.1752 63.0278C76.2717 64.4434 75.0982 66.476 73.324 66.2342L45.8653 62.4918C45.6861 62.4673 45.5044 62.4673 45.3251 62.4918L17.8665 66.2342C16.0923 66.476 14.9187 64.4434 16.0152 63.0278L32.9856 41.1191C33.0964 40.9761 33.1873 40.8187 33.2557 40.6513L43.744 15.0002Z" fill="#F7FC0D"/>
</svg>